<svg viewBox="-1.5 -1.5 735 35" xmlns="http://www.w3.org/2000/svg">
<svg height="35" viewBox="-1.5 -1.5 35 35" width="35" x="-1.5" xmlns="http://www.w3.org/2000/svg" y="-1.5">
<circle cx="14.5" cy="17.5" fill="black" r="16" stroke="none"/>
<circle cx="16" cy="16" fill="#cbc2bf" r="16" stroke="none"/>
<svg height="26" viewBox="0 0 32 32" width="26" x="3" xmlns="http://www.w3.org/2000/svg" y="3">
<path d="M5.2,16.971 c0,-3.915,0.824,-7.525,2.476,-10.829,2.047,-4.094,4.849,-6.142,8.405,-6.142,3.519,0,6.267,1.744,8.242,5.226,1.651,2.874,2.476,6.215,2.476,10.021,0,3.952,-0.826,7.526,-2.476,10.721,-2.012,4.023,-4.814,6.032,-8.405,6.032,-3.412,0,-6.122,-1.723,-8.134,-5.17,-1.723,-2.944,-2.584,-6.23,-2.584,-9.859 z M9.724,15.193 c0,5.171,0.772,9.194,2.318,12.067,1.076,2.01,2.458,3.016,4.147,3.016,4.058,0,6.088,-4.202,6.088,-12.607,0,-3.698,-0.324,-6.824,-0.969,-9.374,-1.114,-4.202,-2.999,-6.304,-5.658,-6.304,-3.952,0,-5.926,4.06,-5.926,12.177 v1.024 z"/>
</svg>
</svg>
<svg height="35" viewBox="-1.5 -1.5 35 35" width="35" x="33.5" xmlns="http://www.w3.org/2000/svg" y="-1.5">
<circle cx="14.5" cy="17.5" fill="black" r="16" stroke="none"/>
<circle cx="16" cy="16" fill="#cbc2bf" r="16" stroke="none"/>
<svg height="26" viewBox="0 0 32 32" width="26" x="3" xmlns="http://www.w3.org/2000/svg" y="3">
<path d="M18.274,0 v25.643 c0,3.068,1.29,4.602,3.875,4.602 h0.674 v1.755 h-13.644 v-1.755 h0.856 c2.499,0,3.748,-1.533,3.748,-4.602 v-16.821 c0,-3.103,-1.079,-4.657,-3.232,-4.657 h-1.372 v-1.699 h0.495 c2.664,0,5.076,-0.823,7.232,-2.466 l1.369,0 z"/>
</svg>
</svg>
<svg height="35" viewBox="-1.5 -1.5 35 35" width="35" x="68.5" xmlns="http://www.w3.org/2000/svg" y="-1.5">
<circle cx="14.5" cy="17.5" fill="black" r="16" stroke="none"/>
<circle cx="16" cy="16" fill="#cbc2bf" r="16" stroke="none"/>
<svg height="26" viewBox="0 0 32 32" width="26" x="3" xmlns="http://www.w3.org/2000/svg" y="3">
<path d="M26.95,24.041 l-2.358,7.959 h-19.596 v-1.702 c0.952,-1.061,3.038,-3.2,6.258,-6.421,1.94,-1.941,3.86,-3.989,5.763,-6.148,0.951,-1.06,1.684,-1.977,2.195,-2.745,1.134,-1.646,1.702,-3.328,1.702,-5.05,0,-1.682,-0.52,-3.165,-1.563,-4.445,-1.043,-1.282,-2.388,-1.923,-4.036,-1.923,-3.548,0,-6.329,2.399,-8.342,7.192 l-1.758,-0.659 c2.379,-6.732,6.128,-10.1,11.252,-10.1,2.525,0,4.675,0.86,6.45,2.579 s2.662,3.842,2.662,6.368 c0,3.221,-1.847,6.367,-5.543,9.44 l-3.842,3.182 c-2.452,2.051,-4.485,3.972,-6.092,5.765,-0.112,0.109,-0.33,0.366,-0.659,0.768 h10.208 c1.573,0,2.763,-0.31,3.567,-0.934,0.694,-0.549,1.374,-1.592,2.032,-3.128 h1.7 z"/>
</svg>
</svg>
<svg height="35" viewBox="-1.5 -1.5 35 35" width="35" x="103.5" xmlns="http://www.w3.org/2000/svg" y="-1.5">
<circle cx="14.5" cy="17.5" fill="black" r="16" stroke="none"/>
<circle cx="16" cy="16" fill="#cbc2bf" r="16" stroke="none"/>
<svg height="26" viewBox="0 0 32 32" width="26" x="3" xmlns="http://www.w3.org/2000/svg" y="3">
<path d="M11.824,17.025 l-0.807,-1.508,0.535,-0.323 c2.07,-1.258,3.961,-2.532,5.676,-3.825 s2.571,-2.766,2.571,-4.419 c0,-1.111,-0.412,-2.045,-1.234,-2.799,-0.824,-0.757,-1.789,-1.134,-2.898,-1.134,-2.576,0,-5.294,1.6,-8.157,4.796 l-1.342,-1.024 c2.981,-4.526,6.626,-6.79,10.936,-6.79,1.903,0,3.518,0.467,4.849,1.401,1.508,1.043,2.262,2.461,2.262,4.257,0,1.292,-0.54,2.55,-1.616,3.77,-0.611,0.719,-1.69,1.653,-3.233,2.802 l-0.646,0.485 c0.287,-0.036,0.629,-0.054,1.024,-0.054,1.975,0,3.599,0.755,4.875,2.263 s1.913,3.268,1.913,5.278 c0,3.413,-1.438,6.267,-4.31,8.566,-2.659,2.155,-5.73,3.231,-9.213,3.231,-3.196,0,-5.71,-0.699,-7.543,-2.1 l0.972,-1.348 c2.155,1.043,4.112,1.563,5.872,1.563,2.549,0,4.82,-0.844,6.813,-2.532,1.995,-1.688,2.99,-3.788,2.99,-6.302,0,-1.653,-0.502,-3.062,-1.508,-4.23,-1.006,-1.166,-2.317,-1.75,-3.933,-1.75,-1.474,0.001,-3.089,0.575,-4.849,1.724 z"/>
</svg>
</svg>
<svg height="35" viewBox="-1.5 -1.5 35 35" width="35" x="138.5" xmlns="http://www.w3.org/2000/svg" y="-1.5">
<circle cx="14.5" cy="17.5" fill="black" r="16" stroke="none"/>
<circle cx="16" cy="16" fill="#cbc2bf" r="16" stroke="none"/>
<svg height="26" viewBox="0 0 32 32" width="26" x="3" xmlns="http://www.w3.org/2000/svg" y="3">
<path d="M22.398,22.943 v2.689 c0,3.074,1.078,4.61,3.238,4.61 h0.932 v1.758 h-13.063 v-1.758 h1.043 c2.121,0,3.184,-1.519,3.184,-4.557 v-2.742 h-13.118 v-2.744 l13.831,-20.199 h3.953 v20.637 h0.328 c1.353,0,2.341,-1.043,2.963,-3.126 h1.646 l-0.768,5.433,-4.169,-0 z M17.732,20.637 v-16.583 l-11.157,16.583 h11.157 z"/>
</svg>
</svg>
<svg height="35" viewBox="-1.5 -1.5 35 35" width="35" x="173.5" xmlns="http://www.w3.org/2000/svg" y="-1.5">
<circle cx="14.5" cy="17.5" fill="black" r="16" stroke="none"/>
<circle cx="16" cy="16" fill="#cbc2bf" r="16" stroke="none"/>
<svg height="26" viewBox="0 0 32 32" width="26" x="3" xmlns="http://www.w3.org/2000/svg" y="3">
<path d="M9.983,0.541 h11.576 c1.502,0,2.395,-0.18,2.681,-0.541 h1.662 l-0.969,4.37 h-14.126 l-1.363,6.316 c2.051,-0.828,3.867,-1.242,5.45,-1.242,3.092,0,5.7,1.035,7.824,3.103,2.122,2.068,3.184,4.649,3.184,7.743,0,3.598,-1.386,6.495,-4.158,8.689,-2.554,2.016,-5.665,3.021,-9.335,3.021,-2.158,0,-4.264,-0.323,-6.314,-0.97 l0.647,-1.618 c1.728,0.468,3.256,0.7,4.588,0.7,2.662,0,4.991,-0.872,6.989,-2.618,1.996,-1.743,2.995,-3.93,2.995,-6.557,0,-2.266,-0.738,-4.128,-2.213,-5.584,-1.476,-1.458,-3.346,-2.187,-5.613,-2.187,-2.085,0,-4.028,0.72,-5.827,2.158 l-1.08,-0.215,3.402,-14.569 z"/>
</svg>
</svg>
<svg height="35" viewBox="-1.5 -1.5 35 35" width="35" x="208.5" xmlns="http://www.w3.org/2000/svg" y="-1.5">
<circle cx="14.5" cy="17.5" fill="black" r="16" stroke="none"/>
<circle cx="16" cy="16" fill="#cbc2bf" r="16" stroke="none"/>
<svg height="26" viewBox="0 0 32 32" width="26" x="3" xmlns="http://www.w3.org/2000/svg" y="3">
<path d="M10.632,13.87 c2.374,-2.231,4.764,-3.345,7.175,-3.345,2.625,0,4.731,1.042,6.315,3.128,1.473,1.908,2.212,4.208,2.212,6.908,0,2.95,-0.863,5.539,-2.59,7.77,-1.907,2.445,-4.281,3.669,-7.123,3.669,-3.419,0,-6.152,-1.476,-8.201,-4.425,-1.836,-2.591,-2.753,-5.667,-2.753,-9.228,0,-3.776,1.043,-7.256,3.13,-10.44,2.085,-3.183,4.873,-5.441,8.362,-6.771,1.979,-0.755,4.067,-1.136,6.26,-1.136 v1.674 c-4.676,0.252,-8.165,2.123,-10.469,5.612,-1.183,1.8,-1.958,3.993,-2.317,6.584 z M10.307,17.107 c-0.034,0.647,-0.053,1.295,-0.053,1.943,0,2.481,0.431,4.784,1.294,6.907,1.114,2.769,2.753,4.154,4.911,4.154,1.869,0,3.272,-0.952,4.208,-2.86,0.719,-1.474,1.079,-3.254,1.079,-5.342,0,-2.228,-0.343,-4.137,-1.025,-5.719,-0.936,-2.158,-2.374,-3.237,-4.317,-3.237,-2.373,-0,-4.407,1.386,-6.097,4.154 z"/>
</svg>
</svg>
<svg height="35" viewBox="-1.5 -1.5 35 35" width="35" x="243.5" xmlns="http://www.w3.org/2000/svg" y="-1.5">
<circle cx="14.5" cy="17.5" fill="black" r="16" stroke="none"/>
<circle cx="16" cy="16" fill="#cbc2bf" r="16" stroke="none"/>
<svg height="26" viewBox="0 0 32 32" width="26" x="3" xmlns="http://www.w3.org/2000/svg" y="3">
<path d="M17.425,32 h-4.657 v-0.495 c0,-2.958,0.931,-6.664,2.792,-11.123,2.814,-6.72,5.408,-11.869,7.781,-15.45 l0.329,-0.493 h-10.903 c-1.572,0,-2.768,0.328,-3.59,0.985,-0.824,0.658,-1.433,1.755,-1.834,3.289 h-1.808 l1.97,-8.713 h1.152 c0.694,0.366,1.897,0.548,3.616,0.548 h14.244 v2.466 c-0.51,0.732,-1.167,1.9,-1.97,3.507,-1.535,2.994,-2.941,6.483,-4.221,10.465,-1.897,5.881,-2.865,10.884,-2.901,15.013 z"/>
</svg>
</svg>
<svg height="35" viewBox="-1.5 -1.5 35 35" width="35" x="278.5" xmlns="http://www.w3.org/2000/svg" y="-1.5">
<circle cx="14.5" cy="17.5" fill="black" r="16" stroke="none"/>
<circle cx="16" cy="16" fill="#cbc2bf" r="16" stroke="none"/>
<svg height="26" viewBox="0 0 32 32" width="26" x="3" xmlns="http://www.w3.org/2000/svg" y="3">
<path d="M12.289,15.785 l-0.713,-0.484 c-2.089,-1.401,-3.466,-2.532,-4.125,-3.396,-0.843,-1.076,-1.264,-2.332,-1.264,-3.77,0,-2.442,1.044,-4.435,3.134,-5.98,1.942,-1.436,4.196,-2.155,6.762,-2.155,2.417,0,4.563,0.629,6.431,1.885,2.124,1.401,3.189,3.251,3.189,5.55,0,2.802,-1.999,5.064,-5.992,6.787,4.543,2.155,6.816,5.154,6.816,8.997,0,2.766,-1.08,4.956,-3.244,6.574,-1.94,1.473,-4.379,2.207,-7.309,2.207,-2.748,0,-5.112,-0.681,-7.092,-2.048,-2.273,-1.542,-3.407,-3.59,-3.407,-6.14 s1.209,-4.652,3.628,-6.304 c0.66,-0.43,1.724,-1.004,3.188,-1.723 z M14.155,16.55 c-3.298,1.471,-4.943,3.786,-4.943,6.944,0,2.045,0.667,3.687,2.007,4.926,1.338,1.239,3.051,1.857,5.14,1.857,1.867,0,3.453,-0.493,4.753,-1.478 s1.951,-2.356,1.951,-4.112 c0,-2.65,-1.782,-4.8,-5.346,-6.449 l-3.562,-1.688 z M17.841,13.361 c2.893,-1.256,4.343,-3.142,4.343,-5.656,0,-1.725,-0.615,-3.106,-1.841,-4.15,-1.229,-1.041,-2.741,-1.562,-4.536,-1.562,-1.504,0,-2.804,0.396,-3.903,1.186,-1.21,0.862,-1.813,2.012,-1.813,3.448,0,1.76,0.842,3.179,2.529,4.257,0.329,0.215,1.794,0.914,4.398,2.1 l0.824,0.377 z"/>
</svg>
</svg>
<svg height="35" viewBox="-1.5 -1.5 35 35" width="35" x="313.5" xmlns="http://www.w3.org/2000/svg" y="-1.5">
<circle cx="14.5" cy="17.5" fill="black" r="16" stroke="none"/>
<circle cx="16" cy="16" fill="#cbc2bf" r="16" stroke="none"/>
<svg height="26" viewBox="0 0 32 32" width="26" x="3" xmlns="http://www.w3.org/2000/svg" y="3">
<path d="M21.36,18.209 c-2.369,2.227,-4.759,3.341,-7.164,3.341,-2.622,0,-4.724,-1.042,-6.303,-3.126,-1.474,-1.903,-2.209,-4.203,-2.209,-6.896,0,-2.909,0.861,-5.511,2.584,-7.81,1.869,-2.48,4.222,-3.718,7.059,-3.718,3.449,0,6.195,1.491,8.242,4.472,1.833,2.622,2.747,5.728,2.747,9.321,0,5.098,-1.69,9.399,-5.062,12.903,-3.376,3.501,-7.597,5.27,-12.661,5.304 v-1.67 c1.544,-0.07,2.781,-0.25,3.719,-0.538,5.169,-1.58,8.188,-5.44,9.048,-11.583 z M21.685,14.977 c0.034,-0.682,0.052,-1.329,0.052,-1.938,0,-2.514,-0.43,-4.814,-1.292,-6.896,-1.15,-2.766,-2.8,-4.15,-4.954,-4.15,-1.87,0,-3.25,0.954,-4.15,2.856,-0.719,1.473,-1.076,3.25,-1.076,5.334,0,2.226,0.341,4.13,1.024,5.71,0.933,2.155,2.37,3.233,4.311,3.233,2.368,0,4.396,-1.383,6.087,-4.149 z"/>
</svg>
</svg>
<svg height="35" viewBox="-1.5 -1.5 35 35" width="35" x="348.5" xmlns="http://www.w3.org/2000/svg" y="-1.5">
<circle cx="14.5" cy="17.5" fill="black" r="16" stroke="none"/>
<circle cx="16" cy="16" fill="#cbc2bf" r="16" stroke="none"/>
<svg height="26" viewBox="0 0 32 32" width="26" x="3" xmlns="http://www.w3.org/2000/svg" y="3">
<path d="M8.258,2.216 v22.166 c0,2.636,1.128,3.954,3.381,3.954 h0.573 v1.503 h-11.806 v-1.503 h0.759 c2.167,0,3.252,-1.318,3.252,-3.954 v-14.537 c0,-2.672,-0.947,-4.009,-2.842,-4.009 h-1.169 v-1.505 h0.446 c2.302,0,4.381,-0.705,6.236,-2.115 l1.169,0 z M12.547,16.862 c0,-3.453,0.723,-6.628,2.171,-9.522,1.82,-3.6,4.309,-5.402,7.463,-5.402,3.046,0,5.459,1.542,7.24,4.621,1.448,2.526,2.173,5.441,2.173,8.744,0,3.454,-0.724,6.609,-2.173,9.468,-1.82,3.528,-4.288,5.291,-7.406,5.291,-3.007,0,-5.402,-1.523,-7.186,-4.568,-1.522,-2.561,-2.282,-5.439,-2.282,-8.633 z M16.556,15.246 c0,2.936,0.316,5.571,0.947,7.908,0.965,3.601,2.542,5.403,4.733,5.403,3.564,0,5.346,-3.712,5.346,-11.138,0,-9.171,-1.931,-13.755,-5.793,-13.755,-3.49,0,-5.235,3.562,-5.235,10.691 l0.001,0.891 z"/>
</svg>
</svg>
<svg height="35" viewBox="-1.5 -1.5 35 35" width="35" x="383.5" xmlns="http://www.w3.org/2000/svg" y="-1.5">
<circle cx="14.5" cy="17.5" fill="black" r="16" stroke="none"/>
<circle cx="16" cy="16" fill="#cbc2bf" r="16" stroke="none"/>
<svg height="26" viewBox="0 0 32 32" width="26" x="3" xmlns="http://www.w3.org/2000/svg" y="3">
<path d="M11.204,1.926 v22.586 c0,2.687,1.118,4.029,3.348,4.029 h0.568 v1.532 h-12.031 v-1.532 h0.794 c2.27,0,3.406,-1.342,3.406,-4.029 v-14.811 c0,-2.725,-0.965,-4.085,-2.896,-4.085 h-1.192 v-1.532 h0.455 c2.346,0,4.463,-0.718,6.355,-2.157 l1.192,-0 z M25.62,1.926 v22.586 c0,2.687,1.116,4.029,3.348,4.029 h0.568 v1.532 h-12.033 v-1.532 h0.794 c2.272,0,3.406,-1.342,3.406,-4.029 v-14.811 c0,-2.725,-0.965,-4.085,-2.893,-4.085 h-1.191 v-1.532 h0.453 c2.346,0,4.463,-0.718,6.357,-2.157 l1.192,-0 z"/>
</svg>
</svg>
<svg height="35" viewBox="-1.5 -1.5 35 35" width="35" x="418.5" xmlns="http://www.w3.org/2000/svg" y="-1.5">
<circle cx="14.5" cy="17.5" fill="black" r="16" stroke="none"/>
<circle cx="16" cy="16" fill="#cbc2bf" r="16" stroke="none"/>
<svg height="26" viewBox="0 0 32 32" width="26" x="3" xmlns="http://www.w3.org/2000/svg" y="3">
<path d="M8.386,1.938 v22.465 c0,2.684,1.109,4.027,3.324,4.027 h0.584 v1.574 h-11.961 v-1.574 h0.7 c2.256,0,3.383,-1.343,3.383,-4.027 v-14.764 c0,-2.72,-0.933,-4.083,-2.799,-4.083 h-1.225 v-1.518 h0.465 c2.334,0,4.435,-0.699,6.302,-2.1 l1.227,-0 z M31.667,23.118 l-2.042,6.945 h-17.098 v-1.517 c0.819,-0.933,2.626,-2.802,5.428,-5.603,1.671,-1.672,3.346,-3.462,5.019,-5.366,0.817,-0.936,1.458,-1.712,1.925,-2.337,0.971,-1.476,1.458,-2.953,1.458,-4.432 s-0.448,-2.783,-1.342,-3.911 c-0.895,-1.129,-2.083,-1.692,-3.559,-1.692,-3.075,0,-5.487,2.1,-7.237,6.303 l-1.517,-0.584 c2.102,-5.836,5.368,-8.754,9.803,-8.754,2.178,0,4.046,0.74,5.601,2.218,1.555,1.479,2.334,3.326,2.334,5.544,0,2.839,-1.614,5.601,-4.841,8.287 l-3.326,2.683 c-2.141,1.791,-3.911,3.483,-5.312,5.075,-0.116,0.12,-0.311,0.333,-0.581,0.644 h8.928 c1.361,0,2.372,-0.254,3.035,-0.76,0.66,-0.503,1.264,-1.419,1.807,-2.743 h1.518 z"/>
</svg>
</svg>
<svg height="35" viewBox="-1.5 -1.5 35 35" width="35" x="453.5" xmlns="http://www.w3.org/2000/svg" y="-1.5">
<circle cx="14.5" cy="17.5" fill="black" r="16" stroke="none"/>
<circle cx="16" cy="16" fill="#cbc2bf" r="16" stroke="none"/>
<svg height="26" viewBox="0 0 32 32" width="26" x="3" xmlns="http://www.w3.org/2000/svg" y="3">
<path d="M8.547,1.956 v22.567 c0,2.653,1.129,3.977,3.385,3.977 h0.534 v1.544 h-11.995 v-1.544 h0.773 c2.296,0,3.443,-1.324,3.443,-3.977 v-14.789 c0,-2.73,-0.971,-4.098,-2.909,-4.098 h-1.189 v-1.542 h0.476 c2.334,0,4.434,-0.714,6.295,-2.139 h1.187 z M18.643,16.921 l-0.713,-1.308,0.536,-0.298 c1.781,-1.106,3.434,-2.224,4.959,-3.354,1.522,-1.128,2.286,-2.403,2.286,-3.83,0,-0.99,-0.377,-1.812,-1.128,-2.464,-0.752,-0.655,-1.585,-0.981,-2.494,-0.981,-2.298,0,-4.712,1.386,-7.247,4.158 l-1.187,-0.892 c2.612,-3.959,5.819,-5.94,9.619,-5.94,1.663,0,3.069,0.416,4.217,1.248,1.346,0.913,2.02,2.159,2.02,3.743,0,1.11,-0.476,2.197,-1.426,3.264,-0.556,0.595,-1.505,1.406,-2.851,2.436 l-0.534,0.476 c0.237,-0.038,0.534,-0.06,0.892,-0.06,1.742,0,3.166,0.665,4.275,1.988,1.109,1.326,1.662,2.842,1.662,4.542,0,3.01,-1.266,5.504,-3.801,7.483,-2.296,1.899,-4.968,2.852,-8.015,2.852,-2.813,0,-5.009,-0.595,-6.592,-1.783 l0.831,-1.187 c1.861,0.87,3.562,1.308,5.105,1.308,2.218,0,4.198,-0.732,5.939,-2.199,1.742,-1.463,2.612,-3.286,2.612,-5.463,0,-1.464,-0.435,-2.71,-1.305,-3.74,-0.873,-1.03,-2.02,-1.544,-3.446,-1.544,-1.265,0,-2.672,0.516,-4.216,1.545 z"/>
</svg>
</svg>
<svg height="35" viewBox="-1.5 -1.5 35 35" width="35" x="488.5" xmlns="http://www.w3.org/2000/svg" y="-1.5">
<circle cx="14.5" cy="17.5" fill="black" r="16" stroke="none"/>
<circle cx="16" cy="16" fill="#cbc2bf" r="16" stroke="none"/>
<svg height="26" viewBox="0 0 32 32" width="26" x="3" xmlns="http://www.w3.org/2000/svg" y="3">
<path d="M8.282,2.279 v22.045 c0,2.602,1.082,3.903,3.245,3.903 h0.515 v1.493 h-11.623 v-1.493 h0.742 c2.202,0,3.303,-1.301,3.303,-3.903 v-14.467 c0,-2.642,-0.932,-3.962,-2.791,-3.962 h-1.14 v-1.492 h0.456 c2.239,0,4.272,-0.707,6.094,-2.123 l1.2,-0 z M27.48,21.913 v2.296 c0,2.565,0.89,3.847,2.677,3.847 h0.739 v1.49 h-10.881 v-1.49 h0.855 c1.785,0,2.678,-1.264,2.678,-3.789 v-2.355 h-10.939 v-2.296 l11.565,-16.994 h3.306 v17.338 h0.285 c1.102,0,1.917,-0.878,2.448,-2.639 h1.367 l-0.684,4.593,-3.417,-0 z M24.46,19.617 v-14.466 l-9.685,14.466 h9.685 z"/>
</svg>
</svg>
<svg height="35" viewBox="-1.5 -1.5 35 35" width="35" x="523.5" xmlns="http://www.w3.org/2000/svg" y="-1.5">
<circle cx="14.5" cy="17.5" fill="black" r="16" stroke="none"/>
<circle cx="16" cy="16" fill="#cbc2bf" r="16" stroke="none"/>
<svg height="26" viewBox="0 0 32 32" width="26" x="3" xmlns="http://www.w3.org/2000/svg" y="3">
<path d="M9.223,2.258 v21.921 c0,2.606,1.085,3.911,3.25,3.911 h0.551 v1.485 h-11.675 v-1.485 h0.771 c2.203,0,3.305,-1.304,3.305,-3.911 v-14.377 c0,-2.643,-0.936,-3.965,-2.81,-3.965 h-1.156 v-1.487 h0.441 c2.277,0,4.332,-0.697,6.168,-2.092 h1.157 z M16.935,2.807 h9.969 c1.287,0,2.057,-0.145,2.315,-0.44 h1.432 l-0.827,3.746 h-12.172 l-1.156,5.397 c1.724,-0.697,3.267,-1.047,4.626,-1.047,2.644,0,4.874,0.883,6.692,2.645 s2.725,3.964,2.725,6.609 c0,3.084,-1.174,5.561,-3.523,7.436,-2.205,1.725,-4.868,2.589,-7.988,2.589,-1.836,0,-3.635,-0.276,-5.397,-0.827 l0.549,-1.376 c1.468,0.403,2.773,0.605,3.911,0.605,2.277,0,4.27,-0.751,5.976,-2.257 s2.559,-3.38,2.559,-5.619 c0,-1.945,-0.632,-3.544,-1.898,-4.792,-1.268,-1.248,-2.855,-1.873,-4.765,-1.873,-1.799,0,-3.469,0.625,-5.012,1.873 l-0.935,-0.165,2.917,-12.505 z"/>
</svg>
</svg>
<svg height="35" viewBox="-1.5 -1.5 35 35" width="35" x="558.5" xmlns="http://www.w3.org/2000/svg" y="-1.5">
<circle cx="14.5" cy="17.5" fill="black" r="16" stroke="none"/>
<circle cx="16" cy="16" fill="#cbc2bf" r="16" stroke="none"/>
<svg height="26" viewBox="0 0 32 32" width="26" x="3" xmlns="http://www.w3.org/2000/svg" y="3">
<path d="M9.528,2.3 v21.921 c0,2.607,1.085,3.911,3.25,3.911 h0.551 v1.485 h-11.675 v-1.485 h0.771 c2.203,0,3.305,-1.304,3.305,-3.911 v-14.377 c0,-2.643,-0.936,-3.965,-2.81,-3.965 h-1.156 v-1.487 h0.441 c2.277,0,4.332,-0.697,6.168,-2.092 h1.157 z"/>
<path d="M16.943,14.223 c2.026,-1.904,4.067,-2.856,6.125,-2.856,2.241,0,4.039,0.89,5.391,2.671,1.257,1.629,1.888,3.592,1.888,5.897,0,2.519,-0.737,4.729,-2.211,6.633,-1.628,2.088,-3.655,3.133,-6.08,3.133,-2.918,0,-5.252,-1.26,-7.001,-3.778,-1.567,-2.212,-2.35,-4.837,-2.35,-7.878,0,-3.223,0.89,-6.194,2.671,-8.912,1.78,-2.717,4.16,-4.644,7.138,-5.78,1.689,-0.645,3.472,-0.969,5.344,-0.969 v1.429 c-3.992,0.215,-6.971,1.812,-8.937,4.791,-1.01,1.537,-1.671,3.409,-1.978,5.621 z M16.665,16.986 c-0.029,0.552,-0.045,1.106,-0.045,1.658,0,2.118,0.368,4.084,1.105,5.897,0.951,2.363,2.35,3.546,4.193,3.546,1.596,0,2.793,-0.813,3.592,-2.442,0.614,-1.258,0.921,-2.778,0.921,-4.56,0,-1.902,-0.293,-3.531,-0.875,-4.882,-0.799,-1.842,-2.027,-2.763,-3.685,-2.763,-2.026,-0,-3.762,1.183,-5.205,3.546 z"/>
</svg>
</svg>
<svg height="35" viewBox="-1.5 -1.5 35 35" width="35" x="593.5" xmlns="http://www.w3.org/2000/svg" y="-1.5">
<circle cx="14.5" cy="17.5" fill="black" r="16" stroke="none"/>
<circle cx="16" cy="16" fill="#cbc2bf" r="16" stroke="none"/>
<svg height="26" viewBox="0 0 32 32" width="26" x="3" xmlns="http://www.w3.org/2000/svg" y="3">
<path d="M9.619,2.341 v21.921 c0,2.606,1.085,3.911,3.25,3.911 h0.551 v1.485 h-11.675 v-1.485 h0.771 c2.203,0,3.305,-1.304,3.305,-3.911 v-14.377 c0,-2.643,-0.936,-3.965,-2.81,-3.965 h-1.156 v-1.487 h0.441 c2.277,0,4.332,-0.697,6.168,-2.092 h1.157 z"/>
<path d="M22.494,29.659 h-3.976 v-0.423 c0,-2.525,0.795,-5.689,2.383,-9.495,2.402,-5.736,4.617,-10.132,6.643,-13.189 l0.281,-0.421 h-9.307 c-1.342,0,-2.363,0.28,-3.065,0.841,-0.703,0.562,-1.223,1.498,-1.566,2.807 h-1.543 l1.682,-7.438 h0.984 c0.592,0.312,1.619,0.468,3.087,0.468 h12.159 v2.105 c-0.435,0.625,-0.996,1.622,-1.682,2.994,-1.311,2.556,-2.511,5.534,-3.604,8.934,-1.62,5.02,-2.446,9.291,-2.477,12.816 z"/>
</svg>
</svg>
<svg height="35" viewBox="-1.5 -1.5 35 35" width="35" x="628.5" xmlns="http://www.w3.org/2000/svg" y="-1.5">
<circle cx="14.5" cy="17.5" fill="black" r="16" stroke="none"/>
<circle cx="16" cy="16" fill="#cbc2bf" r="16" stroke="none"/>
<svg height="26" viewBox="0 0 32 32" width="26" x="3" xmlns="http://www.w3.org/2000/svg" y="3">
<path d="M9.465,2.341 v21.921 c0,2.606,1.085,3.911,3.25,3.911 h0.551 v1.485 h-11.675 v-1.485 h0.771 c2.203,0,3.305,-1.304,3.305,-3.911 l-0,-14.377 c0,-2.643,-0.936,-3.965,-2.81,-3.965 h-1.156 v-1.487 h0.441 c2.277,0,4.332,-0.697,6.168,-2.092 h1.157 z"/>
<path d="M18.256,15.817 l-0.608,-0.414 c-1.784,-1.196,-2.959,-2.161,-3.521,-2.899,-0.72,-0.919,-1.079,-1.991,-1.079,-3.219,0,-2.085,0.891,-3.786,2.675,-5.104,1.658,-1.226,3.582,-1.84,5.773,-1.84,2.063,0,3.895,0.537,5.49,1.609,1.813,1.196,2.722,2.775,2.722,4.738,0,2.392,-1.707,4.323,-5.115,5.794,3.878,1.84,5.818,4.399,5.818,7.68,0,2.361,-0.922,4.23,-2.77,5.612,-1.656,1.257,-3.738,1.884,-6.24,1.884,-2.346,0,-4.364,-0.581,-6.055,-1.748,-1.94,-1.317,-2.909,-3.065,-2.909,-5.241 s1.032,-3.971,3.097,-5.382 c0.563,-0.367,1.471,-0.857,2.722,-1.471 z M19.849,16.47 c-2.815,1.256,-4.22,3.232,-4.22,5.928,0,1.746,0.57,3.148,1.713,4.205,1.142,1.058,2.604,1.585,4.388,1.585,1.594,0,2.948,-0.421,4.058,-1.262 s1.666,-2.012,1.666,-3.51 c0,-2.262,-1.522,-4.098,-4.564,-5.505 l-3.041,-1.441 z M22.995,13.747 c2.47,-1.072,3.707,-2.682,3.707,-4.828,0,-1.473,-0.525,-2.652,-1.571,-3.543,-1.049,-0.889,-2.34,-1.334,-3.872,-1.334,-1.284,0,-2.393,0.338,-3.332,1.012,-1.033,0.736,-1.548,1.718,-1.548,2.943,0,1.502,0.719,2.714,2.158,3.634,0.28,0.183,1.532,0.781,3.754,1.793 l0.703,0.322 z"/>
</svg>
</svg>
<svg height="35" viewBox="-1.5 -1.5 35 35" width="35" x="663.5" xmlns="http://www.w3.org/2000/svg" y="-1.5">
<circle cx="14.5" cy="17.5" fill="black" r="16" stroke="none"/>
<circle cx="16" cy="16" fill="#cbc2bf" r="16" stroke="none"/>
<svg height="26" viewBox="0 0 32 32" width="26" x="3" xmlns="http://www.w3.org/2000/svg" y="3">
<path d="M9.613,2.341 v21.921 c0,2.606,1.085,3.911,3.25,3.911 h0.551 v1.485 h-11.675 v-1.485 h0.771 c2.203,0,3.305,-1.304,3.305,-3.911 v-14.377 c0,-2.643,-0.936,-3.965,-2.81,-3.965 h-1.156 v-1.487 h0.441 c2.277,0,4.332,-0.697,6.168,-2.092 h1.157 z"/>
<path d="M26.032,17.886 c-2.022,1.901,-4.063,2.852,-6.116,2.852,-2.238,0,-4.032,-0.889,-5.381,-2.668,-1.258,-1.625,-1.886,-3.588,-1.886,-5.887,0,-2.483,0.735,-4.704,2.206,-6.667,1.595,-2.117,3.604,-3.174,6.026,-3.174,2.944,0,5.289,1.273,7.036,3.818,1.565,2.238,2.345,4.889,2.345,7.957,0,4.352,-1.442,8.024,-4.321,11.014,-2.882,2.988,-6.485,4.498,-10.808,4.528 v-1.426 c1.318,-0.06,2.374,-0.214,3.175,-0.459,4.412,-1.349,6.989,-4.644,7.724,-9.888 z M26.309,15.126 c0.029,-0.582,0.044,-1.134,0.044,-1.655,0,-2.146,-0.367,-4.109,-1.103,-5.887,-0.982,-2.362,-2.39,-3.542,-4.229,-3.542,-1.597,0,-2.774,0.814,-3.543,2.438,-0.614,1.258,-0.919,2.775,-0.919,4.553,0,1.901,0.291,3.525,0.874,4.874,0.796,1.839,2.023,2.76,3.68,2.76,2.021,0,3.753,-1.181,5.196,-3.542 z"/>
</svg>
</svg>
<svg height="35" viewBox="-1.5 -1.5 35 35" width="35" x="698.5" xmlns="http://www.w3.org/2000/svg" y="-1.5">
<circle cx="14.5" cy="17.5" fill="black" r="16" stroke="none"/>
<circle cx="16" cy="16" fill="#cbc2bf" r="16" stroke="none"/>
<svg height="26" viewBox="0 0 32 32" width="26" x="3" xmlns="http://www.w3.org/2000/svg" y="3">
<path d="M17.013,22.597 l-1.828,6.53 h-15.185 v-1.396 c0.738,-0.87,2.354,-2.626,4.85,-5.268,1.503,-1.592,2.991,-3.273,4.466,-5.044,0.737,-0.87,1.305,-1.622,1.701,-2.252,0.879,-1.35,1.319,-2.73,1.319,-4.143,0,-1.38,-0.403,-2.597,-1.211,-3.647,-0.808,-1.051,-1.851,-1.578,-3.127,-1.578,-2.75,0,-4.905,1.968,-6.464,5.901 l-1.362,-0.54 c1.843,-5.523,4.749,-8.286,8.72,-8.286,1.957,0,3.623,0.705,4.998,2.116 s2.063,3.152,2.063,5.225 c0,2.643,-1.431,5.224,-4.296,7.745 l-2.977,2.611 c-1.9,1.683,-3.475,3.259,-4.721,4.73,-0.087,0.09,-0.256,0.301,-0.51,0.63 h7.911 c1.219,0,2.141,-0.255,2.764,-0.766,0.538,-0.45,1.064,-1.306,1.575,-2.567 h1.317 z"/>
<path d="M16.341,16.797 c0,-3.212,0.598,-6.174,1.795,-8.885,1.484,-3.359,3.516,-5.039,6.093,-5.039,2.551,0,4.543,1.431,5.975,4.287,1.197,2.358,1.795,5.099,1.795,8.221,0,3.243,-0.599,6.174,-1.795,8.796,-1.459,3.301,-3.49,4.949,-6.093,4.949,-2.474,0,-4.438,-1.413,-5.897,-4.242,-1.249,-2.416,-1.874,-5.112,-1.874,-8.088 z M19.62,15.338 c0,4.242,0.56,7.543,1.68,9.901,0.78,1.649,1.782,2.475,3.006,2.475,2.942,0,4.414,-3.448,4.414,-10.344,0,-3.034,-0.235,-5.598,-0.702,-7.691,-0.808,-3.447,-2.174,-5.172,-4.102,-5.172,-2.865,0,-4.297,3.331,-4.297,9.991 v0.84 z"/>
</svg>
</svg>
</svg>