<svg viewBox="-1.5 -1.5 35 35" xmlns="http://www.w3.org/2000/svg">
<circle cx="14.5" cy="17.5" fill="black" r="16" stroke="none"/>
<circle cx="16" cy="16" fill="#cbc2bf" r="16" stroke="none"/>
<svg height="32" viewBox="0 0 32 32" width="32" x="0" xmlns="http://www.w3.org/2000/svg" y="0">
<path d="M16,0.382 l3.132,4.41,0.752,-1.303,1.386,-0.016,2.717,-1.308,0.226,3.007,0.679,1.208,-0.752,1.304,5.385,0.507,-2.254,4.917 h1.505 l0.707,1.192,2.491,1.699,-2.491,1.699,-0.707,1.192 h-1.505 l2.254,4.917,-5.385,0.507,0.752,1.303,-0.679,1.21,-0.226,3.007,-2.717,-1.308,-1.386,-0.016,-0.752,-1.304,-3.132,4.41,-3.132,-4.41,-0.752,1.304,-1.386,0.017,-2.717,1.308,-0.226,-3.008,-0.679,-1.209,0.752,-1.303,-5.385,-0.507,2.254,-4.917 h-1.505 l-0.707,-1.192,-2.491,-1.699,2.491,-1.699,0.707,-1.192 h1.505 l-2.254,-4.917,5.386,-0.507,-0.752,-1.304,0.679,-1.208,0.226,-3.007,2.717,1.308,1.386,0.016,0.752,1.303,3.132,-4.41 z" fill="white"/>
<path d="M16,0.382 l3.132,4.41,0.752,-1.303,1.386,-0.016,2.717,-1.308,0.226,3.007,0.679,1.208,-0.752,1.304,5.385,0.507,-2.254,4.917 h1.505 l0.707,1.192,2.491,1.699,-2.491,1.699,-0.707,1.192 h-1.505 l2.254,4.917,-5.385,0.507,0.752,1.303,-0.679,1.21,-0.226,3.007,-2.717,-1.308,-1.386,-0.016,-0.752,-1.304,-3.132,4.41,-3.132,-4.41,-0.752,1.304,-1.386,0.017,-2.717,1.308,-0.226,-3.008,-0.679,-1.209,0.752,-1.303,-5.385,-0.507,2.254,-4.917 h-1.505 l-0.707,-1.192,-2.491,-1.699,2.491,-1.699,0.707,-1.192 h1.505 l-2.254,-4.917,5.386,-0.507,-0.752,-1.304,0.679,-1.208,0.226,-3.007,2.717,1.308,1.386,0.016,0.752,1.303,3.132,-4.41 z M16,20.894 l-2.253,3.926,2.253,3.926,2.252,-3.926,-2.252,-3.926 z M10.055,4.408 l-1.12,0.647 v1.293 l1.12,0.647,4.32,8.067,-9.147,0.292,-1.12,-0.646,-1.119,0.646 v1.293 l1.119,0.647,1.12,-0.647,9.147,0.292,-4.321,8.067,-1.12,0.646,-0,1.293,1.12,0.646,1.12,-0.646 v-1.293 l4.826,-7.775,4.826,7.775 v1.293 l1.119,0.646,1.12,-0.647 v-1.293 l-1.12,-0.647,-4.32,-8.067,9.147,-0.292,1.12,0.647,1.12,-0.646 v-1.294 l-1.12,-0.646,-1.12,0.646,-9.147,-0.292,4.321,-8.067,1.12,-0.647 v-1.293 l-1.12,-0.647,-1.119,0.646,-0.001,1.293,-4.826,7.775,-4.826,-7.775,-0,-1.293,-1.119,-0.646 z M20.239,18.448 l2.274,3.914,4.526,0.012,-2.274,-3.913,-4.526,-0.012 z M11.761,18.447 l-4.526,0.012,-2.274,3.914,4.526,-0.012,2.274,-3.914 z M27.039,9.627 l-4.526,0.012,-2.274,3.914,4.527,-0.012,2.273,-3.914 z M4.961,9.627 l2.274,3.913,4.526,0.012,-2.274,-3.914,-4.526,-0.012 z M16,3.253 l-2.252,3.926,2.252,3.926,2.252,-3.926,-2.252,-3.926 z" fill="black"/>
</svg>
</svg>