<svg viewBox="0 0 100 100" xmlns="http://www.w3.org/2000/svg">
<path d="M85.35534,14.644661 A50,50,0,0,1,14.644661,85.35534 z" fill="#9bd3ae"/>
<path d="M85.35534,14.644661 A50,50,0,0,0,14.644661,85.35534 z" fill="#cbc2bf"/>
<svg height="43" viewBox="0 0 32 32" width="43" x="46.17766952966369" xmlns="http://www.w3.org/2000/svg" y="46.17766952966369">
<path d="M31.729,17.957 c0,0.601,-0.232,1.14,-0.698,1.621 s-0.998,0.72,-1.598,0.72 c-0.959,0,-1.666,-0.45,-2.115,-1.35 l-2.115,-0.09 c-0.451,0,-1.336,0.196,-2.656,0.585,-1.41,0.39,-2.221,0.705,-2.431,0.945,-0.33,0.36,-0.599,1.2,-0.81,2.521,-0.181,1.08,-0.27,1.875,-0.27,2.386,0,0.809,0.127,1.403,0.382,1.778 s0.78,0.69,1.575,0.945 c0.794,0.255,1.283,0.398,1.463,0.428,0.12,0,0.314,-0.015,0.585,-0.045 h0.54 c0.389,0,0.794,0.061,1.215,0.18,0.6,0.18,0.856,0.42,0.766,0.721,-0.421,-0.06,-1.155,0.03,-2.205,0.27 l1.26,0.63 c0,0.36,-0.51,0.54,-1.53,0.54,-0.271,0,-0.638,-0.06,-1.104,-0.179,-0.465,-0.121,-0.773,-0.18,-0.922,-0.18 h-0.585 c-0.03,0.3,-0.12,0.749,-0.27,1.35,-0.511,-0.03,-1.11,-0.331,-1.8,-0.9 s-1.125,-0.855,-1.305,-0.855 c-0.181,0,-0.436,0.286,-0.766,0.855,-0.331,0.569,-0.495,0.96,-0.495,1.17,-0.39,-0.21,-0.719,-0.601,-0.991,-1.17,-0.12,-0.391,-0.255,-0.78,-0.404,-1.17,-0.3,0.03,-0.856,0.661,-1.665,1.891 h-0.226 c-0.06,-0.091,-0.286,-0.721,-0.675,-1.891,-0.93,-0.3,-1.8,-0.45,-2.611,-0.45,-0.39,0,-0.99,0.09,-1.8,0.27 l-1.26,-0.089 c0.179,-0.18,0.704,-0.525,1.575,-1.035,1.02,-0.6,1.8,-0.901,2.34,-0.901,0.089,0,0.208,0.015,0.36,0.045,0.149,0.031,0.27,0.045,0.36,0.045,0.208,0,0.547,-0.112,1.012,-0.338,0.465,-0.224,0.735,-0.427,0.809,-0.607,0.076,-0.182,0.114,-0.646,0.114,-1.396,0,-1.71,-0.45,-2.985,-1.351,-3.825,-0.781,-0.75,-2.07,-1.29,-3.871,-1.621,-0.48,1.71,-1.83,2.566,-4.05,2.566,-0.721,0,-1.441,-0.435,-2.16,-1.305 s-1.079,-1.666,-1.079,-2.386 c0,-1.11,0.464,-2.025,1.394,-2.747,-0.749,-0.779,-1.125,-1.574,-1.125,-2.384,0,-0.751,0.232,-1.41,0.698,-1.982,0.465,-0.569,1.073,-0.899,1.823,-0.99,-0.06,-0.959,0.255,-1.62,0.945,-1.98,-0.33,-0.329,-0.495,-0.914,-0.495,-1.754,0,-0.99,0.33,-1.816,0.99,-2.476 s1.485,-0.991,2.475,-0.991 c1.081,0,1.966,0.377,2.656,1.126,0.87,-2.97,2.746,-4.456,5.625,-4.456,1.5,0,2.82,0.6,3.961,1.801,0.42,0.45,0.63,0.69,0.63,0.719,-0.36,0,-0.179,-0.068,0.54,-0.202 s1.244,-0.203,1.576,-0.203 c1.169,0,2.205,0.435,3.105,1.305,0.78,0.78,1.32,1.77,1.621,2.97,0.209,0.03,0.54,0.12,0.99,0.269,0.659,0.332,0.99,0.9,0.99,1.711,0,0.151,-0.121,0.436,-0.36,0.855,1.92,1.08,2.88,2.58,2.88,4.501,0,0.54,-0.21,1.291,-0.63,2.251,0.78,0.449,1.17,1.11,1.17,1.98 z M13.186,19.937 v-0.585 c0,-0.69,-0.337,-1.32,-1.012,-1.89 s-1.358,-0.855,-2.048,-0.855 c-0.841,0,-1.62,0.195,-2.341,0.584,1.59,-0.089,3.391,0.826,5.4,2.746 z M12.377,14.357 c-0.45,-0.511,-0.84,-1.036,-1.171,-1.576,-1.26,0.33,-1.89,0.705,-1.89,1.124,0.36,-0.029,0.885,0.038,1.575,0.203 s1.186,0.248,1.486,0.248 z M15.123,12.961 v-1.98 c-0.721,-0.12,-1.157,-0.18,-1.305,-0.18 v0.675 l1.305,1.486 z M20.973,11.701 c-0.36,-0.15,-1.036,-0.45,-2.025,-0.9 v3.87 c1.41,-0.811,2.084,-1.801,2.025,-2.97 z M23.447,17.012 l-0.989,-1.215 c-0.6,0.42,-1.208,0.848,-1.823,1.283 s-1.148,0.923,-1.597,1.463 c1.35,-0.721,2.821,-1.23,4.41,-1.531 z"/>
</svg>
<svg height="43" viewBox="0 0 32 32" width="43" x="10.822330470336311" xmlns="http://www.w3.org/2000/svg" y="10.822330470336311">
<path d="M26.95,24.041 l-2.358,7.959 h-19.596 v-1.702 c0.952,-1.061,3.038,-3.2,6.258,-6.421,1.94,-1.941,3.86,-3.989,5.763,-6.148,0.951,-1.06,1.684,-1.977,2.195,-2.745,1.134,-1.646,1.702,-3.328,1.702,-5.05,0,-1.682,-0.52,-3.165,-1.563,-4.445,-1.043,-1.282,-2.388,-1.923,-4.036,-1.923,-3.548,0,-6.329,2.399,-8.342,7.192 l-1.758,-0.659 c2.379,-6.732,6.128,-10.1,11.252,-10.1,2.525,0,4.675,0.86,6.45,2.579 s2.662,3.842,2.662,6.368 c0,3.221,-1.847,6.367,-5.543,9.44 l-3.842,3.182 c-2.452,2.051,-4.485,3.972,-6.092,5.765,-0.112,0.109,-0.33,0.366,-0.659,0.768 h10.208 c1.573,0,2.763,-0.31,3.567,-0.934,0.694,-0.549,1.374,-1.592,2.032,-3.128 h1.7 z"/>
</svg>
</svg>