<svg viewBox="0 0 32 32" xmlns="http://www.w3.org/2000/svg">
<circle cx="16" cy="16" fill="#cbc2bf" r="16" stroke="none"/>
<svg height="26" viewBox="0 0 32 32" width="26" x="3" xmlns="http://www.w3.org/2000/svg" y="3">
<path d="M5.2,16.971 c0,-3.915,0.824,-7.525,2.476,-10.829,2.047,-4.094,4.849,-6.142,8.405,-6.142,3.519,0,6.267,1.744,8.242,5.226,1.651,2.874,2.476,6.215,2.476,10.021,0,3.952,-0.826,7.526,-2.476,10.721,-2.012,4.023,-4.814,6.032,-8.405,6.032,-3.412,0,-6.122,-1.723,-8.134,-5.17,-1.723,-2.944,-2.584,-6.23,-2.584,-9.859 z M9.724,15.193 c0,5.171,0.772,9.194,2.318,12.067,1.076,2.01,2.458,3.016,4.147,3.016,4.058,0,6.088,-4.202,6.088,-12.607,0,-3.698,-0.324,-6.824,-0.969,-9.374,-1.114,-4.202,-2.999,-6.304,-5.658,-6.304,-3.952,0,-5.926,4.06,-5.926,12.177 v1.024 z"/>
</svg>
</svg>