<svg viewBox="0 0 32 32" xmlns="http://www.w3.org/2000/svg">
<path d="M27.31371,4.6862917 A16,16,0,0,1,4.6862917,27.31371 z" fill="#cbc2bf"/>
<path d="M27.31371,4.6862917 A16,16,0,0,0,4.6862917,27.31371 z" fill="#aae0fa"/>
<svg height="14" viewBox="0 0 32 32" width="14" x="14.65685424949238" xmlns="http://www.w3.org/2000/svg" y="14.65685424949238">
<path d="M31.406,15.477 c0,2.089,-0.76,3.513,-2.279,4.273,-0.444,0.222,-1.836,0.522,-4.178,0.902,-1.519,0.254,-2.278,0.839,-2.278,1.756 v3.845 c0,0.16,0.047,0.649,0.142,1.472 l0.143,1.52 c0,0.475,-0.111,1.251,-0.333,2.327,-0.601,0.126,-1.298,0.268,-2.089,0.428,-0.254,-0.951,-0.38,-1.599,-0.38,-1.948,0,-0.157,0.04,-0.396,0.119,-0.712,0.078,-0.316,0.12,-0.553,0.12,-0.713,0,-0.22,-0.197,-0.838,-0.59,-1.85 h-0.736 c-0.098,0.158,-0.13,0.364,-0.098,0.617,0.126,0.538,0.174,0.997,0.143,1.377,-0.538,0.38,-1.282,0.886,-2.232,1.519,-0.222,-0.063,-0.3,-0.095,-0.238,-0.095 v-3.371 c-0.062,-0.157,-0.221,-0.22,-0.475,-0.19 h-0.569 l-0.569,4.462 c-0.444,0.032,-0.981,0.032,-1.614,0,-0.223,-1.044,-0.617,-2.594,-1.187,-4.652 h-0.38 c-0.349,1.109,-0.538,1.711,-0.57,1.805,0,0.126,0.039,0.371,0.119,0.735,0.078,0.364,0.118,0.609,0.118,0.736,0,0.095,-0.032,0.332,-0.095,0.712 l-0.143,1.139 c-0.064,0.063,-0.143,0.095,-0.237,0.095,-0.949,0,-1.583,-0.237,-1.899,-0.711,-0.316,-0.475,-0.444,-1.14,-0.38,-1.995 l0.38,-5.696 c0,-0.095,0.031,-0.222,0.095,-0.38,0.062,-0.158,0.095,-0.269,0.095,-0.332,0,-0.254,-0.269,-0.76,-0.807,-1.52,-0.094,-0.031,-0.586,-0.143,-1.471,-0.333,-0.539,-0.126,-1.599,-0.348,-3.181,-0.665,-2.185,-0.41,-3.276,-2.167,-3.276,-5.269,0,-4.621,1.9,-8.466,5.698,-11.536,0.157,0.855,0.427,1.993,0.806,3.418,0.285,0.064,0.903,0.206,1.852,0.427,0.191,0.064,1.156,0.412,2.897,1.045,-0.887,-0.538,-2.042,-1.408,-3.466,-2.611,-0.538,-0.633,-0.807,-1.692,-0.807,-3.18,0,-0.348,0.602,-0.76,1.805,-1.236,1.075,-0.443,1.883,-0.695,2.421,-0.759,1.709,-0.22,3.022,-0.333,3.941,-0.333,3.955,0,7.151,1.014,9.588,3.039,-0.79,0.918,-2.152,1.898,-4.082,2.942,0.76,0.032,1.868,-0.268,3.323,-0.902,1.455,-0.632,2.073,-0.949,1.852,-0.949,0.253,0,0.76,0.507,1.52,1.519,0.569,0.759,1.028,1.441,1.377,2.041,1.012,1.805,1.692,3.751,2.042,5.839,0,0.729,0.015,1.251,0.047,1.567 v0.38 h0.001 z M13.224,16.332 c0,-1.361,-0.594,-2.651,-1.78,-3.87 s-2.461,-1.827,-3.822,-1.827 c-1.203,0,-2.263,0.51,-3.181,1.529 s-1.377,2.151,-1.377,3.393 c0,1.082,0.522,1.784,1.567,2.102,0.665,0.192,1.597,0.303,2.801,0.334 h2.611 c2.119,0.032,3.181,-0.522,3.181,-1.661 z M18.398,22.219 v-1.472 c-0.221,-0.411,-0.443,-0.838,-0.664,-1.282,-0.19,-0.634,-0.538,-1.52,-1.045,-2.659 l-0.523,5.555 c0,0.444,-0.095,0.665,-0.285,0.665,-0.126,0,-0.221,-0.031,-0.285,-0.094,-0.222,-3.355,-0.333,-4.811,-0.333,-4.369 v-1.661 c-0.064,-0.096,-0.142,-0.143,-0.237,-0.143,-1.077,1.109,-1.614,2.897,-1.614,5.365,0,1.361,0.125,2.2,0.379,2.517,0.254,-0.063,0.538,-0.174,0.855,-0.332,0.126,-0.064,0.49,-0.095,1.093,-0.095,0.6,0,1.329,0.19,2.183,0.569,0.316,0,0.475,-0.854,0.475,-2.562 z M29.127,15.604 c0,-1.275,-0.475,-2.413,-1.424,-3.416 s-2.042,-1.505,-3.275,-1.505 c-1.329,0,-2.572,0.608,-3.727,1.827 s-1.733,2.492,-1.733,3.822 c0,1.108,0.538,1.661,1.614,1.661 h5.459 c2.057,-0.031,3.086,-0.828,3.086,-2.389 z"/>
</svg>
<svg height="14" viewBox="0 0 32 32" width="14" x="3.3431457505076185" xmlns="http://www.w3.org/2000/svg" y="3.3431457505076203">
<path d="M23.11,29.095 c-1.903,1.937,-4.248,2.905,-7.033,2.905,-3.126,0,-5.605,-1.07,-7.439,-3.21,-1.733,-2.038,-2.599,-4.637,-2.599,-7.795,0,-3.397,1.478,-7.271,4.433,-11.62,2.411,-3.566,5.248,-6.692,8.509,-9.375,-0.476,2.175,-0.713,3.72,-0.713,4.637,0,2.107,0.662,4.162,1.986,6.166,1.631,2.378,2.87,4.145,3.72,5.299,1.325,2.005,1.987,3.958,1.987,5.859,0.001,2.82,-0.951,5.198,-2.852,7.133 z M23.058,18.216 c-0.509,-1.138,-1.104,-1.893,-1.784,-2.268,0.102,0.204,0.153,0.493,0.153,0.867,0,0.714,-0.204,1.732,-0.612,3.057 l-0.662,2.038 c0,1.189,0.593,1.784,1.783,1.784,1.256,0,1.885,-0.833,1.885,-2.497,0,-0.848,-0.254,-1.842,-0.764,-2.981 z"/>
</svg>
</svg>