<svg viewBox="0 0 32 32" xmlns="http://www.w3.org/2000/svg">
<circle cx="16" cy="16" fill="#cbc2bf" r="16" stroke="none"/>
<svg height="26" viewBox="0 0 32 32" width="26" x="3" xmlns="http://www.w3.org/2000/svg" y="3">
<path d="M9.983,0.541 h11.576 c1.502,0,2.395,-0.18,2.681,-0.541 h1.662 l-0.969,4.37 h-14.126 l-1.363,6.316 c2.051,-0.828,3.867,-1.242,5.45,-1.242,3.092,0,5.7,1.035,7.824,3.103,2.122,2.068,3.184,4.649,3.184,7.743,0,3.598,-1.386,6.495,-4.158,8.689,-2.554,2.016,-5.665,3.021,-9.335,3.021,-2.158,0,-4.264,-0.323,-6.314,-0.97 l0.647,-1.618 c1.728,0.468,3.256,0.7,4.588,0.7,2.662,0,4.991,-0.872,6.989,-2.618,1.996,-1.743,2.995,-3.93,2.995,-6.557,0,-2.266,-0.738,-4.128,-2.213,-5.584,-1.476,-1.458,-3.346,-2.187,-5.613,-2.187,-2.085,0,-4.028,0.72,-5.827,2.158 l-1.08,-0.215,3.402,-14.569 z"/>
</svg>
</svg>